<svg width="278.69" height="143.99" viewBox="0 0 209.02 107.99" xmlns="http://www.w3.org/2000/svg" xmlns:xlink="http://www.w3.org/1999/xlink" overflow="hidden"><path d="M38.686 31.061C38.714 30.83 38.731 30.591 38.731 30.347 38.731 30.214 38.731 30.059 38.715 29.884 40.774 29.854 42.579 28.372 42.579 26.667 42.579 25.799 42.013 25.144 41.694 24.753 41.765 24.737 41.838 24.721 41.911 24.703 42.212 24.965 43.068 25.897 43.068 27.073 43.068 29.119 41.023 31.019 38.686 31.061M36.613 23.936C36.5773 23.714 36.4889 23.5037 36.355 23.323 36.363 23.115 36.448 22.915 36.785 23.08 36.602 23.266 36.743 23.595 36.743 23.595 36.743 23.595 37.115 23.422 37.037 23.177 37.589 23.309 37.192 24.049 36.613 23.936M36.134 24.986C36.0567 24.672 35.9097 24.3795 35.704 24.13 35.523 23.915 35.222 23.66 34.818 23.66 34.633 23.66 34.323 23.747 34.126 23.83 34.052 23.696 33.909 23.373 33.909 23.227 33.909 23.077 34.162 22.926 34.646 22.926 35.712 22.926 36.348 23.407 36.348 24.215 36.348 24.499 36.236 24.757 36.134 24.986M38.871 38.722C38.9587 38.7197 39.0459 38.7357 39.127 38.769 39.434 39.603 40.617 41.179 40.667 41.246L40.677 41.26 40.694 41.256C40.984 41.209 41.725 41.098 42.344 41.098L42.359 41.098C42.426 41.098 42.503 41.098 42.551 41.145 42.591 41.185 42.611 41.255 42.611 41.356 42.611 41.51 42.546 41.773 42.468 41.886 42.251 41.649 41.898 41.543 41.335 41.543 41.165 41.543 40.965 41.593 40.856 41.623L40.812 41.632 40.762 41.645 41.087 41.971C41.589 42.472 42.022 42.905 42.022 43.193 42.022 43.367 41.853 43.593 41.698 43.693 41.664 43.165 41.131 42.459 40.612 42.063L40.567 42.03 40.559 42.216C40.552 42.342 40.54 42.531 40.54 42.734 40.54 43.739 40.438 43.892 40.09 43.892 40.0266 43.8897 39.9639 43.8779 39.904 43.857 40.1 43.615 40.178 43.295 40.178 42.733L40.175 42.473 40.172 42.265C40.172 42.035 40.195 41.865 40.214 41.727L40.224 41.649 40.17 41.642C39.9389 41.6062 39.7058 41.5848 39.472 41.578 38.976 41.578 38.639 41.624 38.395 41.853 38.235 41.723 38.069 41.499 38.069 41.357 38.069 41.147 38.199 41.131 38.37 41.131 38.457 41.131 38.538 41.143 38.65 41.157 38.863 41.189 39.184 41.237 39.846 41.237L39.888 41.237 39.874 41.196C39.707 40.716 39.246 40.018 38.508 39.12 38.574 38.88 38.639 38.722 38.871 38.722M32.495 41.196 32.481 41.236 32.523 41.236C33.183 41.236 33.506 41.189 33.72 41.156 33.831 41.143 33.912 41.131 33.999 41.131 34.169 41.131 34.3 41.147 34.3 41.357 34.3 41.499 34.135 41.723 33.975 41.853 33.73 41.623 33.393 41.578 32.898 41.578 32.665 41.578 32.362 41.619 32.199 41.642L32.174 41.645 32.144 41.649 32.154 41.727C32.174 41.864 32.197 42.035 32.197 42.265L32.194 42.474 32.191 42.733C32.191 43.295 32.269 43.615 32.466 43.857 32.4057 43.8778 32.3427 43.8896 32.279 43.892 31.929 43.892 31.829 43.739 31.829 42.734 31.829 42.531 31.819 42.342 31.811 42.216L31.801 42.029 31.757 42.063C31.239 42.459 30.704 43.165 30.672 43.693 30.516 43.593 30.347 43.367 30.347 43.193 30.347 42.905 30.78 42.473 31.282 41.971L31.608 41.645 31.513 41.622C31.3568 41.5765 31.1956 41.55 31.033 41.543 30.471 41.543 30.119 41.649 29.901 41.886 29.823 41.773 29.758 41.51 29.758 41.356 29.758 41.256 29.778 41.186 29.818 41.146 29.866 41.098 29.943 41.098 30.01 41.098L30.024 41.098C30.644 41.098 31.386 41.209 31.674 41.256L31.692 41.26 31.702 41.246C31.753 41.178 32.935 39.603 33.242 38.769 33.323 38.7353 33.4103 38.7193 33.498 38.722 33.73 38.722 33.795 38.879 33.862 39.12 33.122 40.018 32.662 40.716 32.495 41.196M29.3 27.073C29.3 25.897 30.157 24.965 30.458 24.703 30.53 24.721 30.603 24.737 30.675 24.753 30.355 25.144 29.789 25.799 29.789 26.667 29.789 28.389 31.629 29.885 33.714 29.885 33.7 30.0386 33.693 30.1928 33.693 30.347 33.693 30.601 33.707 30.838 33.733 31.061 31.375 31.047 29.3 29.134 29.3 27.073M45.108 30.702C46.166 32.374 46.993 32.346 48.243 32.346 47.209 31.554 46.525 30.538 46.199 30.02L44.268 26.93C44.0777 25.9619 43.5792 25.0813 42.847 24.42 43.096 24.325 43.302 24.226 43.426 24.132 42.165 24.132 40.916 23.492 40.227 23.492 39.785 23.492 39.501 23.756 39.501 24.105 39.529 24.495 39.93 24.89 40.671 24.89 40.838 24.89 41.053 24.868 41.288 24.83 41.688 25.388 42.012 25.893 42.012 26.614 42.012 27.967 40.395 29.021 38.762 29.021 38.669 29.021 38.582 29.017 38.489 29.011 38.342 28.675 37.849 28.112 37.849 27.472 37.849 26.397 38.55 25.519 38.55 24.454 38.55 23.792 38.228 23.382 38.104 23.212 38.304 23.026 38.524 22.798 38.575 22.641 38.458 22.691 38.32 22.697 38.118 22.697 37.336 22.697 36.698 22.494 36.076 22.494 35.72 22.494 35.626 22.604 35.626 22.708 35.626 22.746 35.63 22.785 35.641 22.804 35.5105 22.7529 35.3751 22.715 35.237 22.691 35.0417 22.6551 34.8435 22.6377 34.645 22.639 33.889 22.639 33.621 22.956 33.621 23.227 33.621 23.457 33.801 23.876 34.007 24.197 34.301 24.047 34.655 23.947 34.817 23.947 35.218 23.947 35.575 24.329 35.764 24.782 35.494 24.815 35.442 24.826 35.17 24.826 34.433 24.826 33.933 24.563 33.83 24.563 33.82 24.563 33.8 24.568 33.8 24.584 33.8 24.688 34.009 24.96 34.42 25.11 34.962 25.308 35.774 25.391 35.91 25.414 35.91 25.437 35.772 25.694 35.618 25.744 35.5869 25.754 35.5535 25.7547 35.522 25.746 34.956 25.635 34.798 25.587 34.08 25.315 34.059 25.306 34.045 25.32 34.045 25.342 34.045 25.626 34.78 26.253 35.439 26.494 34.889 27.196 34.202 27.915 33.878 29.011 33.786 29.017 33.698 29.021 33.605 29.021 31.972 29.021 30.355 27.967 30.355 26.614 30.355 25.893 30.678 25.388 31.079 24.829 31.314 24.869 31.529 24.89 31.697 24.89 32.437 24.89 32.837 24.495 32.867 24.105 32.867 23.756 32.583 23.492 32.14 23.492 31.452 23.492 30.203 24.132 28.94 24.132 29.065 24.226 29.272 24.325 29.52 24.419 28.7885 25.0807 28.2904 25.9611 28.1 26.929L26.168 30.02C25.843 30.538 25.157 31.554 24.123 32.346 25.373 32.346 26.201 32.374 27.259 30.702L28.249 29.117C28.322 29.323 28.412 29.523 28.519 29.719L26.549 32.871C26.222 33.393 25.542 34.399 24.504 35.196 25.754 35.196 26.582 35.226 27.64 33.554L29.335 30.84C29.462 30.975 29.595 31.108 29.735 31.234L27.343 35.064C27.015 35.587 26.339 36.591 25.299 37.387 26.549 37.387 27.377 37.417 28.434 35.745L30.766 32.011C30.92 32.108 31.076 32.202 31.24 32.291L28.393 36.847C28.064 37.37 27.389 38.371 26.349 39.171 27.599 39.171 28.427 39.2 29.484 37.528L32.415 32.836C32.589 32.903 32.765 32.966 32.943 33.023L29.631 38.325C29.308 38.841 28.617 39.861 27.588 40.649 28.837 40.649 29.666 40.677 30.723 39.006L34.253 33.357C34.289 33.363 34.324 33.368 34.359 33.376 34.455 33.681 34.522 33.966 34.522 34.25 34.522 36.026 33.357 37.594 31.959 38.804 32.049 38.844 32.205 38.857 32.349 38.857 32.637 38.857 32.823 38.841 32.954 38.818 32.63 39.555 31.934 40.506 31.583 40.998 31.0675 40.9091 30.546 40.86 30.023 40.851 29.567 40.851 29.515 41.117 29.515 41.356 29.515 41.77 29.709 42.1 29.935 42.283 30.019 42.072 30.19 41.789 31.032 41.789L31.117 41.794C30.871 42.068 30.1 42.691 30.1 43.194 30.1 43.526 30.464 44.024 30.945 44.024 30.917 43.917 30.92 43.819 30.92 43.744 30.92 43.338 31.28 42.862 31.585 42.529 31.575 42.629 31.581 42.619 31.581 42.734 31.581 43.695 31.668 44.137 32.278 44.137 32.578 44.137 32.784 43.973 32.855 43.924 32.459 43.559 32.438 43.272 32.438 42.733L32.442 42.266C32.4458 42.1307 32.4391 41.9953 32.422 41.861 32.639 41.831 32.728 41.831 32.897 41.831 32.897 41.831 33.763 41.761 33.973 42.213 34.208 41.997 34.55 41.693 34.55 41.357 34.55 41.135 34.445 40.884 33.998 40.884 33.828 40.884 33.296 40.987 32.851 40.987 32.971 40.722 33.503 39.943 33.965 39.378 34.035 39.598 34.143 39.834 34.385 40.028 34.419 39.664 34.632 38.515 35.2 37.842 35.266 38.297 35.355 38.762 35.355 39.745 35.355 42.135 34.78 43.9 33.561 44.237 33.72 44.512 34.055 44.761 34.403 44.761 34.85 44.761 35.093 44.256 35.34 43.78 35.47 44.131 35.826 44.993 36.183 44.993 36.54 44.993 36.898 44.131 37.027 43.78 37.274 44.256 37.517 44.761 37.964 44.761 38.312 44.761 38.647 44.512 38.806 44.237 37.586 43.9 37.011 42.135 37.011 39.745 37.011 38.763 37.101 38.297 37.166 37.842 37.736 38.515 37.949 39.664 37.981 40.028 38.1851 39.86 38.3321 39.6329 38.402 39.378 38.863 39.943 39.396 40.722 39.516 40.988 39.071 40.988 38.538 40.884 38.369 40.884 37.923 40.884 37.818 41.135 37.818 41.357 37.818 41.693 38.16 41.997 38.395 42.213 38.603 41.762 39.471 41.831 39.471 41.831 39.639 41.831 39.728 41.831 39.947 41.861 39.926 41.979 39.925 42.142 39.926 42.266L39.929 42.733C39.929 43.272 39.909 43.559 39.512 43.923 39.583 43.973 39.79 44.137 40.089 44.137 40.699 44.137 40.787 43.695 40.787 42.734 40.787 42.618 40.79 42.628 40.782 42.529 41.087 42.862 41.447 43.338 41.447 43.745 41.447 43.819 41.451 43.917 41.421 44.025 41.903 44.025 42.268 43.525 42.268 43.193 42.268 42.691 41.497 42.068 41.248 41.793L41.334 41.789C42.177 41.789 42.348 42.072 42.432 42.283 42.7026 42.0516 42.8564 41.712 42.852 41.356 42.852 41.117 42.8 40.851 42.344 40.851 41.908 40.851 41.243 40.915 40.784 40.998 40.432 40.506 39.738 39.555 39.413 38.818 39.543 38.841 39.731 38.857 40.019 38.857 40.163 38.857 40.319 38.843 40.409 38.804 39.009 37.594 37.845 36.026 37.845 34.25 37.845 33.966 37.912 33.681 38.008 33.376 38.042 33.368 38.079 33.363 38.114 33.357L41.644 39.007C42.701 40.677 43.53 40.649 44.779 40.649 43.75 39.861 43.059 38.841 42.736 38.325L39.423 33.023C39.603 32.967 39.779 32.903 39.953 32.836L42.883 37.528C43.94 39.2 44.769 39.171 46.018 39.171 44.978 38.371 44.303 37.371 43.974 36.847L41.13 32.29C41.291 32.201 41.45 32.107 41.602 32.01L43.935 35.744C44.993 37.416 45.82 37.386 47.07 37.386 46.03 36.59 45.355 35.586 45.026 35.062L42.634 31.232C42.774 31.107 42.909 30.974 43.034 30.839L44.73 33.553C45.787 35.224 46.615 35.195 47.865 35.195 46.825 34.398 46.148 33.392 45.82 32.87L43.851 29.718C43.957 29.522 44.047 29.322 44.121 29.116ZM54.516 23.527 58.131 23.527 58.131 44.183 54.516 44.183Z"/><path d="M54.516 44.183 58.131 44.183 58.131 64.839 54.516 64.839Z" fill="#FF0000"/><path d="M54.516 64.839 58.131 64.839 58.131 85.495 54.516 85.495Z" fill="#FFCC00"/><path d="M70.826 25.407C70.826 24.081 70.02 23.225 67.987 23.225L66.34 23.225 66.34 31.777 68.088 31.777C70.133 31.777 71.05 30.797 71.05 29.459 71.05 28.319 70.318 27.576 69.438 27.402L69.438 27.377C70.182 27.179 70.827 26.597 70.827 25.407ZM69.735 25.444C69.735 26.423 69.128 27.03 67.975 27.03L67.417 27.03 67.417 24.08 67.987 24.08C69.19 24.08 69.735 24.663 69.735 25.444ZM69.896 29.385C69.896 30.365 69.351 30.885 68.086 30.885L67.417 30.885 67.417 27.885 68.149 27.885C69.264 27.885 69.896 28.468 69.896 29.385ZM75.597 31.108 75.622 31.108 75.622 31.777 76.539 31.777 76.539 25.828 75.535 25.828 75.535 30.377C75.337 30.624 74.94 31.033 74.333 31.033 73.663 31.033 73.341 30.637 73.341 29.658L73.341 25.828 72.338 25.828 72.338 29.732C72.338 31.343 72.994 31.926 74.048 31.926 74.953 31.926 75.486 31.318 75.598 31.108ZM80.294 26.535C80.988 26.535 81.323 26.943 81.323 27.947L81.323 31.777 82.327 31.777 82.327 27.873C82.327 26.262 81.657 25.679 80.592 25.679 79.662 25.679 79.129 26.287 79.018 26.497L78.993 26.497 78.993 25.828 78.076 25.828 78.076 31.777 79.08 31.777 79.08 27.191C79.278 26.943 79.687 26.535 80.294 26.535ZM85.909 31.033C85.215 31.033 84.595 30.488 84.595 28.853 84.595 27.167 85.326 26.572 86.255 26.572 86.615 26.572 86.851 26.671 87.024 26.782L87.024 30.451C86.7735 30.8197 86.3548 31.0383 85.909 31.033ZM87.086 31.145 87.111 31.145 87.111 31.777 88.028 31.777 88.028 22.903 87.024 23.015 87.024 25.865C86.7552 25.7617 86.4689 25.7114 86.181 25.717 84.917 25.717 83.554 26.485 83.554 28.889 83.554 31.059 84.508 31.926 85.636 31.926 86.578 31.926 86.974 31.331 87.086 31.145ZM91.498 26.497C92.13 26.497 92.465 26.981 92.465 27.799 92.465 27.985 92.452 28.146 92.44 28.232L90.284 28.232C90.334 27.117 90.792 26.497 91.498 26.497ZM93.506 31.219 93.134 30.513C92.998 30.649 92.589 31.033 91.882 31.033 90.878 31.033 90.333 30.377 90.272 28.988L93.308 28.988C93.345 28.703 93.382 28.344 93.382 27.836 93.382 26.411 92.688 25.679 91.56 25.679 90.32 25.679 89.292 26.621 89.292 28.729 89.292 30.971 90.234 31.926 91.734 31.926 92.861 31.926 93.344 31.393 93.506 31.219ZM97.72 26.311C97.521 26.113 97.125 25.679 96.208 25.679 95.241 25.679 94.485 26.336 94.485 27.216 94.485 28.034 94.931 28.517 95.675 28.988L96.047 29.224C96.617 29.584 96.914 29.782 96.914 30.352 96.914 30.736 96.592 31.033 95.997 31.033 95.353 31.033 94.981 30.649 94.795 30.451L94.311 31.244C94.547 31.492 95.031 31.926 95.985 31.926 97.199 31.926 97.881 31.195 97.881 30.253 97.881 29.373 97.385 28.889 96.579 28.406L96.208 28.183C95.675 27.861 95.427 27.613 95.427 27.167 95.427 26.82 95.712 26.535 96.245 26.535 96.803 26.535 97.15 26.882 97.285 27.03ZM101.289 26.571C101.909 26.571 102.181 26.981 102.181 27.947L102.181 31.777 103.185 31.777 103.185 27.787C103.188 27.5792 103.172 27.3716 103.135 27.167 103.359 26.907 103.731 26.572 104.275 26.572 104.945 26.572 105.305 26.981 105.305 27.947L105.305 31.777 106.308 31.777 106.308 27.787C106.308 26.373 105.688 25.679 104.499 25.679 103.731 25.679 103.185 26.138 102.925 26.473 102.652 25.94 102.157 25.679 101.487 25.679 100.669 25.679 100.161 26.225 100 26.497L99.975 26.497 99.975 25.828 99.058 25.828 99.058 31.777 100.062 31.777 100.062 27.191C100.236 26.981 100.62 26.571 101.289 26.571ZM108.316 24.391C108.713 24.391 108.986 24.093 108.986 23.671 108.986 23.263 108.713 22.965 108.316 22.965 107.907 22.965 107.635 23.263 107.635 23.672 107.635 24.093 107.907 24.39 108.316 24.39ZM108.812 25.828 107.808 25.828 107.808 31.777 108.812 31.777ZM112.567 26.535C113.261 26.535 113.596 26.943 113.596 27.947L113.596 31.777 114.6 31.777 114.6 27.873C114.6 26.262 113.93 25.679 112.865 25.679 111.935 25.679 111.402 26.287 111.291 26.497L111.266 26.497 111.266 25.828 110.349 25.828 110.349 31.777 111.353 31.777 111.353 27.191C111.551 26.943 111.96 26.535 112.567 26.535ZM116.607 24.39C117.004 24.39 117.277 24.093 117.277 23.672 117.277 23.262 117.004 22.965 116.607 22.965 116.199 22.965 115.926 23.263 115.926 23.672 115.926 24.093 116.199 24.39 116.608 24.39ZM117.103 25.828 116.1 25.828 116.1 31.777 117.104 31.777ZM121.639 26.311C121.441 26.113 121.044 25.679 120.127 25.679 119.161 25.679 118.405 26.336 118.405 27.216 118.405 28.034 118.851 28.517 119.595 28.988L119.966 29.224C120.536 29.584 120.834 29.782 120.834 30.352 120.834 30.736 120.512 31.033 119.917 31.033 119.272 31.033 118.9 30.649 118.714 30.451L118.231 31.244C118.467 31.492 118.95 31.926 119.904 31.926 121.119 31.926 121.8 31.195 121.8 30.253 121.8 29.373 121.305 28.889 120.5 28.406L120.127 28.183C119.594 27.861 119.347 27.613 119.347 27.167 119.347 26.82 119.632 26.535 120.164 26.535 120.722 26.535 121.069 26.882 121.206 27.03ZM125.679 31.665 125.543 30.86C125.444 30.922 125.221 31.033 124.923 31.033 124.416 31.033 124.217 30.786 124.217 29.943L124.217 26.646 125.519 26.646 125.642 25.828 124.217 25.828 124.217 24.168 123.325 24.168 123.213 25.828 122.494 25.977 122.494 26.646 123.214 26.646 123.214 30.079C123.214 31.393 123.734 31.926 124.75 31.926 125.283 31.926 125.593 31.727 125.68 31.666ZM128.505 26.497C129.137 26.497 129.472 26.981 129.472 27.799 129.472 27.985 129.46 28.146 129.447 28.232L127.291 28.232C127.341 27.117 127.799 26.497 128.505 26.497ZM130.513 31.219 130.141 30.513C130.005 30.649 129.596 31.033 128.89 31.033 127.886 31.033 127.34 30.377 127.278 28.988L130.315 28.988C130.352 28.703 130.389 28.344 130.389 27.836 130.389 26.411 129.695 25.679 128.567 25.679 127.328 25.679 126.299 26.621 126.299 28.729 126.299 30.971 127.241 31.926 128.741 31.926 129.869 31.926 130.352 31.393 130.513 31.219ZM134.467 25.816C134.367 25.778 134.207 25.716 133.921 25.716 133.165 25.716 132.843 26.163 132.67 26.634L132.645 26.634 132.645 25.828 131.728 25.828 131.728 31.777 132.732 31.777 132.732 27.414C132.88 27.018 133.215 26.609 133.847 26.609 134.12 26.609 134.293 26.683 134.343 26.708ZM135.842 24.39C136.239 24.39 136.512 24.093 136.512 23.672 136.512 23.262 136.239 22.965 135.842 22.965 135.433 22.965 135.161 23.263 135.161 23.672 135.161 24.093 135.433 24.39 135.842 24.39ZM136.338 25.828 135.334 25.828 135.334 31.777 136.338 31.777ZM141.098 31.108 141.122 31.108 141.122 31.777 142.039 31.777 142.039 25.828 141.035 25.828 141.035 30.377C140.837 30.624 140.44 31.033 139.833 31.033 139.163 31.033 138.842 30.637 138.842 29.658L138.842 25.828 137.838 25.828 137.838 29.732C137.838 31.343 138.495 31.926 139.548 31.926 140.453 31.926 140.986 31.318 141.098 31.108ZM145.807 26.572C146.427 26.572 146.699 26.981 146.699 27.947L146.699 31.777 147.703 31.777 147.703 27.787C147.706 27.5792 147.69 27.3716 147.653 27.167 147.877 26.907 148.248 26.572 148.793 26.572 149.463 26.572 149.823 26.981 149.823 27.947L149.823 31.777 150.826 31.777 150.826 27.787C150.826 26.373 150.206 25.679 149.016 25.679 148.248 25.679 147.703 26.138 147.443 26.473 147.17 25.94 146.674 25.679 146.005 25.679 145.187 25.679 144.679 26.225 144.518 26.497L144.493 26.497 144.493 25.828 143.576 25.828 143.576 31.777 144.58 31.777 144.58 27.191C144.753 26.981 145.138 26.571 145.807 26.571ZM68.632 39.04 68.756 38.222 67.417 38.222 67.417 37.156C67.417 36.375 67.677 36.115 68.149 36.115 68.409 36.115 68.595 36.214 68.694 36.275L68.904 35.445C68.6476 35.2986 68.3573 35.2217 68.062 35.222 67.182 35.222 66.413 35.743 66.413 37.044L66.413 38.234 65.695 38.37 65.695 39.04 66.413 39.04 66.413 44.17 67.417 44.17 67.417 39.04ZM73.23 36.511C73.23 36.127 72.97 35.879 72.635 35.879 72.3 35.879 72.04 36.127 72.04 36.511 72.04 36.895 72.3 37.143 72.635 37.143 72.97 37.143 73.23 36.896 73.23 36.511ZM71.321 36.511C71.321 36.127 71.061 35.879 70.726 35.879 70.391 35.879 70.132 36.127 70.132 36.511 70.132 36.895 70.392 37.143 70.726 37.143 71.06 37.143 71.321 36.896 71.321 36.511ZM72.846 43.501 72.871 43.501 72.871 44.171 73.788 44.171 73.788 38.221 72.784 38.221 72.784 42.771C72.585 43.018 72.189 43.427 71.582 43.427 70.912 43.427 70.59 43.03 70.59 42.051L70.59 38.221 69.586 38.221 69.586 42.126C69.586 43.736 70.243 44.319 71.296 44.319 72.201 44.319 72.734 43.712 72.846 43.501ZM78.063 38.209C77.964 38.172 77.803 38.11 77.518 38.11 76.762 38.11 76.44 38.556 76.266 39.027L76.242 39.027 76.242 38.222 75.324 38.222 75.324 44.171 76.328 44.171 76.328 39.808C76.478 39.411 76.812 39.002 77.444 39.002 77.716 39.002 77.89 39.077 77.94 39.102ZM82.563 44.171 82.563 40.49 85.376 40.49 85.376 39.635 82.562 39.635 82.562 36.475 85.612 36.475 85.686 35.619 81.484 35.619 81.484 44.171ZM86.442 41.196C86.442 43.427 87.445 44.319 88.759 44.319 90.06 44.319 91.139 43.415 91.139 41.196 91.139 39.002 90.135 38.073 88.821 38.073 87.545 38.073 86.441 39.003 86.441 41.196ZM90.098 41.196C90.098 42.77 89.614 43.427 88.796 43.427 87.978 43.427 87.483 42.77 87.483 41.197 87.483 39.624 87.966 38.928 88.783 38.928 89.6 38.928 90.098 39.622 90.098 41.196ZM95.142 38.209C95.042 38.172 94.882 38.11 94.597 38.11 93.84 38.11 93.518 38.556 93.345 39.027L93.32 39.027 93.32 38.222 92.403 38.222 92.403 44.171 93.407 44.171 93.407 39.808C93.555 39.411 93.89 39.002 94.522 39.002 94.795 39.002 94.968 39.077 95.018 39.102ZM98.959 38.705C98.761 38.507 98.364 38.073 97.447 38.073 96.48 38.073 95.724 38.73 95.724 39.61 95.724 40.428 96.17 40.911 96.914 41.382L97.286 41.618C97.856 41.977 98.153 42.175 98.153 42.745 98.153 43.13 97.831 43.427 97.236 43.427 96.592 43.427 96.22 43.043 96.034 42.844L95.551 43.638C95.786 43.886 96.27 44.319 97.224 44.319 98.439 44.319 99.12 43.589 99.12 42.646 99.12 41.766 98.624 41.283 97.819 40.8L97.447 40.576C96.914 40.254 96.667 40.006 96.667 39.56 96.667 39.213 96.951 38.928 97.484 38.928 98.042 38.928 98.389 39.275 98.525 39.424ZM104.028 38.668C103.842 38.458 103.421 38.073 102.516 38.073 101.339 38.073 100.025 38.903 100.025 41.183 100.025 43.513 101.078 44.319 102.405 44.319 103.334 44.319 103.793 43.886 103.954 43.699L103.544 43.006C103.421 43.142 103.111 43.427 102.504 43.427 101.648 43.427 101.066 42.857 101.066 41.109 101.066 39.535 101.736 38.929 102.59 38.929 103.185 38.929 103.495 39.263 103.607 39.374ZM107.3 38.928C107.994 38.928 108.329 39.338 108.329 40.341L108.329 44.171 109.332 44.171 109.332 40.267C109.332 38.693 108.676 38.073 107.635 38.073 106.68 38.073 106.235 38.643 106.11 38.829L106.085 38.829 106.085 35.297 105.081 35.408 105.081 44.171 106.085 44.171 106.085 39.585C106.284 39.337 106.693 38.928 107.3 38.928ZM114.054 43.501 114.079 43.501 114.079 44.171 114.996 44.171 114.996 38.221 113.992 38.221 113.992 42.771C113.794 43.018 113.398 43.427 112.79 43.427 112.121 43.427 111.799 43.03 111.799 42.051L111.799 38.221 110.795 38.221 110.795 42.126C110.795 43.736 111.452 44.319 112.505 44.319 113.41 44.319 113.943 43.712 114.055 43.501ZM118.752 38.928C119.446 38.928 119.78 39.338 119.78 40.341L119.78 44.171 120.784 44.171 120.784 40.267C120.784 38.655 120.114 38.073 119.049 38.073 118.119 38.073 117.587 38.68 117.475 38.891L117.45 38.891 117.45 38.221 116.533 38.221 116.533 44.171 117.537 44.171 117.537 39.585C117.735 39.337 118.144 38.928 118.752 38.928ZM125.11 40.068C125.11 40.923 124.639 41.258 124.068 41.258 123.523 41.258 123.04 40.923 123.04 40.068 123.04 39.213 123.523 38.878 124.093 38.878 124.639 38.878 125.11 39.213 125.11 40.068ZM126.572 44.629C126.572 43.501 125.729 43.055 124.602 43.055L123.845 43.055C123.412 43.055 123.238 42.882 123.238 42.634 123.238 42.324 123.523 42.163 123.721 42.076 123.821 42.088 123.92 42.088 124.031 42.088 125.196 42.088 126.089 41.332 126.089 40.068 126.089 39.672 125.989 39.3 125.804 39.002L126.547 39.002 126.684 38.222 124.874 38.222C124.622 38.1212 124.353 38.0703 124.081 38.072 122.965 38.072 122.061 38.73 122.061 40.068 122.061 41.01 122.47 41.605 123.077 41.89L123.077 41.915C122.928 41.989 122.358 42.237 122.358 42.882 122.358 43.253 122.494 43.526 122.742 43.712L122.742 43.737C122.47 43.886 121.751 44.307 121.751 45.187 121.751 46.216 122.433 46.798 123.697 46.798 125.457 46.798 126.572 45.906 126.572 44.629ZM123.771 45.943C123.065 45.943 122.718 45.621 122.718 44.989 122.718 44.394 123.04 44.109 123.325 43.948 123.461 43.972 123.622 43.985 123.783 43.985L124.539 43.985C125.147 43.985 125.543 44.208 125.543 44.778 125.543 45.385 124.986 45.943 123.771 45.943ZM127.551 45.906C128.208 45.67 128.989 45.137 128.989 44.009 128.989 43.192 128.654 42.795 128.171 42.795 127.824 42.795 127.526 43.018 127.526 43.465 127.526 43.923 127.824 44.171 128.208 44.171L128.245 44.171C128.245 44.889 127.861 45.211 127.34 45.471ZM137.416 35.619 131.703 35.619 131.703 36.474 133.983 36.474 133.983 44.171 135.062 44.171 135.062 36.474 137.342 36.474ZM139.3 38.891C139.932 38.891 140.267 39.374 140.267 40.192 140.267 40.378 140.255 40.539 140.242 40.626L138.086 40.626C138.136 39.511 138.594 38.891 139.3 38.891ZM141.308 43.613 140.936 42.906C140.8 43.043 140.391 43.427 139.684 43.427 138.681 43.427 138.135 42.77 138.074 41.382L141.11 41.382C141.147 41.097 141.184 40.738 141.184 40.229 141.184 38.804 140.49 38.073 139.362 38.073 138.122 38.073 137.094 39.015 137.094 41.122 137.094 43.365 138.036 44.319 139.536 44.319 140.664 44.319 141.146 43.786 141.308 43.613ZM146.253 38.668C146.067 38.458 145.646 38.073 144.741 38.073 143.564 38.073 142.25 38.903 142.25 41.183 142.25 43.513 143.303 44.319 144.63 44.319 145.559 44.319 146.018 43.886 146.179 43.699L145.769 43.006C145.646 43.142 145.336 43.427 144.729 43.427 143.873 43.427 143.291 42.857 143.291 41.109 143.291 39.535 143.961 38.929 144.815 38.929 145.41 38.929 145.72 39.263 145.832 39.374ZM149.525 38.928C150.219 38.928 150.554 39.338 150.554 40.341L150.554 44.171 151.557 44.171 151.557 40.267C151.557 38.693 150.901 38.073 149.86 38.073 148.905 38.073 148.46 38.643 148.335 38.829L148.31 38.829 148.31 35.297 147.306 35.408 147.306 44.171 148.31 44.171 148.31 39.585C148.509 39.337 148.918 38.928 149.525 38.928ZM155.275 38.928C155.97 38.928 156.305 39.338 156.305 40.341L156.305 44.171 157.308 44.171 157.308 40.267C157.308 38.655 156.638 38.073 155.573 38.073 154.643 38.073 154.111 38.68 153.999 38.891L153.974 38.891 153.974 38.221 153.057 38.221 153.057 44.171 154.061 44.171 154.061 39.585C154.259 39.337 154.668 38.928 155.276 38.928ZM158.535 41.196C158.535 43.427 159.539 44.319 160.853 44.319 162.154 44.319 163.233 43.415 163.233 41.196 163.233 39.002 162.228 38.073 160.915 38.073 159.638 38.073 158.535 39.003 158.535 41.196ZM162.191 41.196C162.191 42.77 161.708 43.427 160.89 43.427 160.072 43.427 159.576 42.77 159.576 41.197 159.576 39.624 160.059 38.928 160.877 38.928 161.695 38.928 162.191 39.622 162.191 41.196ZM165.488 35.296 164.484 35.408 164.484 42.869C164.484 43.923 164.943 44.282 165.612 44.282 166.058 44.282 166.318 44.171 166.417 44.121L166.331 43.377C166.269 43.402 166.145 43.452 165.959 43.452 165.612 43.452 165.488 43.278 165.488 42.782ZM167.049 41.196C167.049 43.427 168.053 44.319 169.367 44.319 170.668 44.319 171.747 43.415 171.747 41.196 171.747 39.002 170.743 38.073 169.429 38.073 168.153 38.073 167.049 39.003 167.049 41.196ZM170.706 41.196C170.706 42.77 170.222 43.427 169.404 43.427 168.586 43.427 168.091 42.77 168.091 41.197 168.091 39.624 168.574 38.928 169.391 38.928 170.21 38.928 170.706 39.622 170.706 41.196ZM175.836 40.068C175.836 40.923 175.366 41.258 174.796 41.258 174.25 41.258 173.766 40.923 173.766 40.068 173.766 39.213 174.25 38.878 174.82 38.878 175.366 38.878 175.837 39.213 175.837 40.068ZM177.299 44.629C177.299 43.501 176.456 43.055 175.329 43.055L174.572 43.055C174.139 43.055 173.965 42.882 173.965 42.634 173.965 42.324 174.25 42.163 174.448 42.076 174.548 42.088 174.647 42.088 174.758 42.088 175.923 42.088 176.816 41.332 176.816 40.068 176.816 39.672 176.716 39.3 176.531 39.002L177.274 39.002 177.411 38.222 175.601 38.222C175.349 38.1212 175.08 38.0703 174.808 38.072 173.692 38.072 172.788 38.73 172.788 40.068 172.788 41.01 173.197 41.605 173.804 41.89L173.804 41.915C173.655 41.989 173.085 42.237 173.085 42.882 173.085 43.253 173.222 43.526 173.469 43.712L173.469 43.737C173.197 43.886 172.478 44.307 172.478 45.187 172.478 46.216 173.16 46.798 174.424 46.798 176.184 46.798 177.299 45.906 177.299 44.629ZM174.498 45.943C173.792 45.943 173.445 45.621 173.445 44.989 173.445 44.394 173.767 44.109 174.052 43.948 174.188 43.972 174.349 43.985 174.51 43.985L175.266 43.985C175.874 43.985 176.27 44.208 176.27 44.778 176.27 45.385 175.713 45.943 174.498 45.943ZM178.923 36.784C179.319 36.784 179.592 36.487 179.592 36.065 179.592 35.656 179.319 35.359 178.922 35.359 178.514 35.359 178.241 35.656 178.241 36.065 178.241 36.487 178.514 36.784 178.923 36.784ZM179.418 38.222 178.414 38.222 178.414 44.171 179.418 44.171ZM182.888 38.891C183.521 38.891 183.855 39.374 183.855 40.192 183.855 40.378 183.843 40.539 183.83 40.626L181.674 40.626C181.724 39.511 182.182 38.891 182.889 38.891ZM184.896 43.613 184.524 42.906C184.388 43.043 183.979 43.427 183.273 43.427 182.269 43.427 181.723 42.77 181.662 41.382L184.698 41.382C184.735 41.097 184.772 40.738 184.772 40.229 184.772 38.804 184.078 38.073 182.95 38.073 181.711 38.073 180.682 39.015 180.682 41.122 180.682 43.365 181.624 44.319 183.124 44.319 184.252 44.319 184.735 43.786 184.896 43.613ZM69.35 55.895 69.376 55.895 69.376 56.565 70.293 56.565 70.293 50.615 69.289 50.615 69.289 55.164C69.09 55.412 68.694 55.821 68.087 55.821 67.417 55.821 67.095 55.424 67.095 54.445L67.095 50.615 66.091 50.615 66.091 54.519C66.091 56.13 66.748 56.713 67.801 56.713 68.706 56.713 69.239 56.106 69.351 55.895ZM74.048 51.322C74.742 51.322 75.077 51.731 75.077 52.735L75.077 56.565 76.08 56.565 76.08 52.66C76.08 51.049 75.411 50.467 74.345 50.467 73.415 50.467 72.883 51.074 72.771 51.285L72.747 51.285 72.747 50.615 71.829 50.615 71.829 56.565 72.833 56.565 72.833 51.979C73.032 51.731 73.441 51.322 74.048 51.322ZM79.662 55.821C78.968 55.821 78.348 55.275 78.348 53.639 78.348 51.954 79.08 51.359 80.009 51.359 80.369 51.359 80.604 51.458 80.778 51.569L80.778 55.239C80.5273 55.608 80.1081 55.8266 79.662 55.821ZM80.84 55.932 80.864 55.932 80.864 56.564 81.782 56.564 81.782 47.69 80.778 47.802 80.778 50.652C80.5092 50.5487 80.2229 50.4984 79.935 50.504 78.671 50.504 77.307 51.272 77.307 53.676 77.307 55.846 78.262 56.713 79.39 56.713 80.331 56.713 80.728 56.118 80.84 55.933ZM89.627 50.467C89.627 51.582 89.007 52.227 87.706 52.227L87.235 52.227 87.235 48.867 87.755 48.867C89.032 48.867 89.627 49.388 89.627 50.467ZM87.235 53.082 87.705 53.082C87.904 53.082 88.102 53.069 88.288 53.057L90.06 56.564 91.325 56.564 89.317 52.797C90.296 52.375 90.779 51.52 90.779 50.405 90.779 48.831 89.813 48.013 87.755 48.013L86.156 48.013 86.156 56.564 87.235 56.564ZM94.77 53.218 94.46 53.218C93.11 53.218 91.981 53.676 91.981 55.052 91.981 56.019 92.663 56.712 93.568 56.712 94.324 56.712 94.683 56.205 94.82 55.907L94.844 55.907C94.857 56.205 94.869 56.391 94.882 56.564L95.836 56.564C95.7876 56.1524 95.7629 55.7384 95.762 55.324L95.762 52.611C95.762 51.111 95.117 50.467 93.902 50.467 92.948 50.467 92.378 50.925 92.118 51.185L92.539 51.855C92.762 51.656 93.159 51.322 93.754 51.322 94.398 51.322 94.77 51.644 94.77 52.648ZM94.77 53.962 94.77 55.275C94.646 55.461 94.361 55.858 93.779 55.858 93.283 55.858 92.985 55.548 92.985 54.941 92.985 54.284 93.493 54.011 94.448 53.974ZM100.496 55.895 100.521 55.895 100.521 56.565 101.438 56.565 101.438 50.615 100.434 50.615 100.434 55.164C100.236 55.412 99.839 55.821 99.232 55.821 98.562 55.821 98.24 55.424 98.24 54.445L98.24 50.615 97.236 50.615 97.236 54.519C97.236 56.13 97.893 56.713 98.946 56.713 99.851 56.713 100.384 56.106 100.496 55.895ZM105.206 51.359C105.826 51.359 106.098 51.768 106.098 52.735L106.098 56.565 107.102 56.565 107.102 52.573C107.105 52.3652 107.089 52.1576 107.052 51.953 107.275 51.693 107.647 51.359 108.192 51.359 108.862 51.359 109.221 51.768 109.221 52.735L109.221 56.565 110.225 56.565 110.225 52.573C110.225 51.161 109.605 50.467 108.415 50.467 107.647 50.467 107.102 50.925 106.841 51.26 106.569 50.727 106.073 50.467 105.404 50.467 104.586 50.467 104.078 51.012 103.916 51.285L103.892 51.285 103.892 50.615 102.975 50.615 102.975 56.565 103.978 56.565 103.978 51.979C104.152 51.768 104.536 51.359 105.205 51.359ZM114.228 51.433 114.352 50.615 113.013 50.615 113.013 49.55C113.013 48.77 113.273 48.51 113.745 48.51 114.005 48.51 114.191 48.609 114.29 48.67L114.5 47.84C114.244 47.6936 113.953 47.6167 113.658 47.617 112.778 47.617 112.01 48.137 112.01 49.439L112.01 50.629 111.29 50.765 111.29 51.435 112.01 51.435 112.01 56.565 113.013 56.565 113.013 51.435ZM117.599 53.218 117.289 53.218C115.939 53.218 114.81 53.676 114.81 55.052 114.81 56.019 115.492 56.712 116.397 56.712 117.153 56.712 117.512 56.205 117.649 55.907L117.673 55.907C117.686 56.205 117.698 56.391 117.711 56.564L118.665 56.564C118.617 56.1524 118.592 55.7384 118.591 55.324L118.591 52.611C118.591 51.111 117.946 50.467 116.731 50.467 115.777 50.467 115.207 50.925 114.947 51.185L115.368 51.855C115.591 51.656 115.988 51.322 116.583 51.322 117.227 51.322 117.599 51.644 117.599 52.648ZM117.599 53.962 117.599 55.275C117.475 55.461 117.19 55.858 116.608 55.858 116.112 55.858 115.814 55.548 115.814 54.941 115.814 54.284 116.322 54.011 117.277 53.974ZM122.321 51.322C123.015 51.322 123.35 51.731 123.35 52.735L123.35 56.565 124.354 56.565 124.354 52.66C124.354 51.086 123.697 50.467 122.656 50.467 121.701 50.467 121.256 51.037 121.131 51.223L121.106 51.223 121.106 47.69 120.103 47.802 120.103 56.564 121.106 56.564 121.106 51.98C121.305 51.732 121.714 51.323 122.321 51.323ZM128.592 50.602C128.493 50.566 128.332 50.504 128.047 50.504 127.291 50.504 126.969 50.95 126.795 51.421L126.77 51.421 126.77 50.615 125.853 50.615 125.853 56.565 126.857 56.565 126.857 52.202C127.006 51.805 127.34 51.396 127.972 51.396 128.245 51.396 128.419 51.47 128.468 51.496ZM132.162 56.452 132.025 55.647C131.926 55.709 131.703 55.821 131.405 55.821 130.897 55.821 130.699 55.573 130.699 54.73L130.699 51.433 132 51.433 132.124 50.615 130.7 50.615 130.7 48.955 129.808 48.955 129.696 50.615 128.977 50.764 128.977 51.434 129.697 51.434 129.697 54.866C129.697 56.18 130.217 56.713 131.233 56.713 131.766 56.713 132.076 56.515 132.163 56.453Z"/></svg>